<mxfile host="app.diagrams.net" modified="2021-03-27T06:33:22.737Z" agent="5.0 (Windows NT 10.0; Win64; x64) AppleWebKit/537.36 (KHTML, like Gecko) Chrome/70.0.3538.102 Safari/537.36" etag="9wYyHrsqAOintnwAz8SS" version="14.1.7" type="github">
  <diagram id="vHTjH_v9-nAIJP0Ax-UL" name="Page-1">
    <mxGraphModel dx="898" dy="446" grid="1" gridSize="10" guides="1" tooltips="1" connect="1" arrows="1" fold="1" page="1" pageScale="1" pageWidth="827" pageHeight="1169" math="0" shadow="0">
      <root>
        <mxCell id="0" />
        <mxCell id="1" parent="0" />
        <mxCell id="AXuJr7GX5t6zdqcwrfW1-2" value="" style="verticalLabelPosition=bottom;verticalAlign=top;html=1;shadow=0;dashed=0;strokeWidth=1;shape=mxgraph.android.phone2;strokeColor=#c0c0c0;" parent="1" vertex="1">
          <mxGeometry x="40" y="30" width="200" height="390" as="geometry" />
        </mxCell>
        <mxCell id="AXuJr7GX5t6zdqcwrfW1-3" value="" style="strokeWidth=1;html=1;shadow=0;dashed=0;shape=mxgraph.android.statusBar;align=center;fillColor=#000000;strokeColor=#ffffff;fontColor=#ffffff;fontSize=10;" parent="1" vertex="1">
          <mxGeometry x="49" y="65" width="182" height="15.83" as="geometry" />
        </mxCell>
        <mxCell id="AXuJr7GX5t6zdqcwrfW1-5" value="提醒我" style="rounded=1;html=1;shadow=0;dashed=0;whiteSpace=wrap;fontSize=10;fillColor=#E6E6E6;align=center;strokeColor=#E6E6E6;fontColor=#333333;" parent="1" vertex="1">
          <mxGeometry x="140" y="371" width="91.5" height="16.88" as="geometry" />
        </mxCell>
        <mxCell id="AXuJr7GX5t6zdqcwrfW1-6" value="" style="verticalLabelPosition=bottom;verticalAlign=top;html=1;shadow=0;dashed=0;strokeWidth=1;shape=mxgraph.android.phone2;strokeColor=#c0c0c0;" parent="1" vertex="1">
          <mxGeometry x="360" y="30" width="200" height="390" as="geometry" />
        </mxCell>
        <mxCell id="AXuJr7GX5t6zdqcwrfW1-7" value="首页" style="text;html=1;strokeColor=none;fillColor=none;align=center;verticalAlign=middle;whiteSpace=wrap;rounded=0;" parent="1" vertex="1">
          <mxGeometry x="90" width="100" height="20" as="geometry" />
        </mxCell>
        <mxCell id="AXuJr7GX5t6zdqcwrfW1-8" value="登录" style="text;html=1;strokeColor=none;fillColor=none;align=center;verticalAlign=middle;whiteSpace=wrap;rounded=0;" parent="1" vertex="1">
          <mxGeometry x="440" width="40" height="20" as="geometry" />
        </mxCell>
        <mxCell id="AXuJr7GX5t6zdqcwrfW1-9" value="微信登录" style="whiteSpace=wrap;html=1;" parent="1" vertex="1">
          <mxGeometry x="410" y="210" width="100" height="20" as="geometry" />
        </mxCell>
        <mxCell id="AXuJr7GX5t6zdqcwrfW1-10" value="" style="verticalLabelPosition=bottom;verticalAlign=top;html=1;shadow=0;dashed=0;strokeWidth=1;shape=mxgraph.android.phone2;strokeColor=#c0c0c0;" parent="1" vertex="1">
          <mxGeometry x="49" y="490" width="200" height="390" as="geometry" />
        </mxCell>
        <mxCell id="AXuJr7GX5t6zdqcwrfW1-11" value="秀自己" style="rounded=1;html=1;shadow=0;dashed=0;whiteSpace=wrap;fontSize=10;fillColor=#B3B3B3;align=center;strokeColor=#E6E6E6;fontColor=#333333;strokeWidth=2;" parent="1" vertex="1">
          <mxGeometry x="57" y="830" width="93" height="16.88" as="geometry" />
        </mxCell>
        <mxCell id="AXuJr7GX5t6zdqcwrfW1-12" value="提醒我" style="rounded=1;html=1;shadow=0;dashed=0;whiteSpace=wrap;fontSize=10;fillColor=#E6E6E6;align=center;strokeColor=#E6E6E6;fontColor=#333333;" parent="1" vertex="1">
          <mxGeometry x="148.5" y="830" width="91.5" height="16.88" as="geometry" />
        </mxCell>
        <mxCell id="AXuJr7GX5t6zdqcwrfW1-13" value="" style="verticalLabelPosition=bottom;verticalAlign=top;html=1;shadow=0;dashed=0;strokeWidth=1;shape=mxgraph.android.phone2;strokeColor=#c0c0c0;" parent="1" vertex="1">
          <mxGeometry x="40" y="950" width="200" height="390" as="geometry" />
        </mxCell>
        <mxCell id="AXuJr7GX5t6zdqcwrfW1-14" value="提醒我" style="rounded=1;html=1;shadow=0;dashed=0;whiteSpace=wrap;fontSize=10;fillColor=#B3B3B3;align=center;strokeColor=#E6E6E6;fontColor=#333333;strokeWidth=2;" parent="1" vertex="1">
          <mxGeometry x="141.5" y="1290" width="93" height="16.88" as="geometry" />
        </mxCell>
        <mxCell id="AXuJr7GX5t6zdqcwrfW1-15" value="拍一拍" style="rounded=1;html=1;shadow=0;dashed=0;whiteSpace=wrap;fontSize=10;fillColor=#E6E6E6;align=center;strokeColor=#E6E6E6;fontColor=#333333;" parent="1" vertex="1">
          <mxGeometry x="50" y="1290" width="91.5" height="16.88" as="geometry" />
        </mxCell>
        <mxCell id="AXuJr7GX5t6zdqcwrfW1-16" value="秀自己" style="rounded=1;html=1;shadow=0;dashed=0;whiteSpace=wrap;fontSize=10;fillColor=#B3B3B3;align=center;strokeColor=#E6E6E6;fontColor=#333333;strokeWidth=2;" parent="1" vertex="1">
          <mxGeometry x="47" y="371" width="93" height="16.88" as="geometry" />
        </mxCell>
        <mxCell id="AXuJr7GX5t6zdqcwrfW1-17" value="" style="verticalLabelPosition=bottom;verticalAlign=top;html=1;shadow=0;dashed=0;strokeWidth=1;shape=mxgraph.android.phone2;strokeColor=#c0c0c0;" parent="1" vertex="1">
          <mxGeometry x="650" y="490" width="200" height="390" as="geometry" />
        </mxCell>
        <mxCell id="AXuJr7GX5t6zdqcwrfW1-20" value="对比页-全屏展示" style="text;html=1;strokeColor=none;fillColor=none;align=center;verticalAlign=middle;whiteSpace=wrap;rounded=0;" parent="1" vertex="1">
          <mxGeometry x="667" y="460" width="160" height="20" as="geometry" />
        </mxCell>
        <mxCell id="AXuJr7GX5t6zdqcwrfW1-24" value="曾经的你" style="rounded=0;whiteSpace=wrap;html=1;" parent="1" vertex="1">
          <mxGeometry x="660" y="690" width="180" height="150" as="geometry" />
        </mxCell>
        <mxCell id="AXuJr7GX5t6zdqcwrfW1-25" value="现在的你" style="rounded=0;whiteSpace=wrap;html=1;" parent="1" vertex="1">
          <mxGeometry x="660" y="529" width="180" height="158" as="geometry" />
        </mxCell>
        <mxCell id="AXuJr7GX5t6zdqcwrfW1-26" value="拍一拍页" style="text;html=1;strokeColor=none;fillColor=none;align=center;verticalAlign=middle;whiteSpace=wrap;rounded=0;" parent="1" vertex="1">
          <mxGeometry x="108" y="465" width="80" height="20" as="geometry" />
        </mxCell>
        <mxCell id="741fsMRxl2IYC-XLmPN2-2" value="" style="strokeWidth=2;html=1;shape=mxgraph.flowchart.start_2;whiteSpace=wrap;" parent="1" vertex="1">
          <mxGeometry x="129" y="780" width="40" height="40" as="geometry" />
        </mxCell>
        <mxCell id="741fsMRxl2IYC-XLmPN2-3" value="默认开启前置摄像头" style="text;html=1;strokeColor=none;fillColor=none;align=center;verticalAlign=middle;whiteSpace=wrap;rounded=0;" parent="1" vertex="1">
          <mxGeometry x="83" y="660" width="130" height="20" as="geometry" />
        </mxCell>
        <mxCell id="741fsMRxl2IYC-XLmPN2-4" value="提醒选择页" style="text;html=1;strokeColor=none;fillColor=none;align=center;verticalAlign=middle;whiteSpace=wrap;rounded=0;" parent="1" vertex="1">
          <mxGeometry x="87" y="927" width="100" height="20" as="geometry" />
        </mxCell>
        <mxCell id="741fsMRxl2IYC-XLmPN2-5" value="" style="verticalLabelPosition=bottom;verticalAlign=top;html=1;shadow=0;dashed=0;strokeWidth=1;shape=mxgraph.android.phone2;strokeColor=#c0c0c0;" parent="1" vertex="1">
          <mxGeometry x="880" y="490" width="200" height="390" as="geometry" />
        </mxCell>
        <mxCell id="741fsMRxl2IYC-XLmPN2-6" value="对比页-操作" style="text;html=1;strokeColor=none;fillColor=none;align=center;verticalAlign=middle;whiteSpace=wrap;rounded=0;" parent="1" vertex="1">
          <mxGeometry x="897" y="460" width="160" height="20" as="geometry" />
        </mxCell>
        <mxCell id="741fsMRxl2IYC-XLmPN2-7" value="曾经的你" style="rounded=0;whiteSpace=wrap;html=1;" parent="1" vertex="1">
          <mxGeometry x="890" y="690" width="180" height="150" as="geometry" />
        </mxCell>
        <mxCell id="741fsMRxl2IYC-XLmPN2-8" value="现在的你" style="rounded=0;whiteSpace=wrap;html=1;" parent="1" vertex="1">
          <mxGeometry x="890" y="529" width="180" height="158" as="geometry" />
        </mxCell>
        <mxCell id="741fsMRxl2IYC-XLmPN2-9" value="" style="verticalLabelPosition=bottom;verticalAlign=top;html=1;shape=mxgraph.basic.tick" parent="1" vertex="1">
          <mxGeometry x="1035" y="810" width="22" height="20" as="geometry" />
        </mxCell>
        <mxCell id="741fsMRxl2IYC-XLmPN2-10" value="" style="verticalLabelPosition=bottom;verticalAlign=top;html=1;shadow=0;dashed=0;strokeWidth=1;shape=mxgraph.android.phone2;strokeColor=#c0c0c0;" parent="1" vertex="1">
          <mxGeometry x="430" y="490" width="200" height="390" as="geometry" />
        </mxCell>
        <mxCell id="741fsMRxl2IYC-XLmPN2-11" value="对比页-无图" style="text;html=1;strokeColor=none;fillColor=none;align=center;verticalAlign=middle;whiteSpace=wrap;rounded=0;" parent="1" vertex="1">
          <mxGeometry x="447" y="460" width="160" height="20" as="geometry" />
        </mxCell>
        <mxCell id="741fsMRxl2IYC-XLmPN2-12" value="" style="rounded=0;whiteSpace=wrap;html=1;" parent="1" vertex="1">
          <mxGeometry x="440" y="690" width="180" height="150" as="geometry" />
        </mxCell>
        <mxCell id="741fsMRxl2IYC-XLmPN2-13" value="现在的你" style="rounded=0;whiteSpace=wrap;html=1;" parent="1" vertex="1">
          <mxGeometry x="440" y="529" width="180" height="158" as="geometry" />
        </mxCell>
        <mxCell id="741fsMRxl2IYC-XLmPN2-15" value="添加曾经的你" style="text;html=1;strokeColor=none;fillColor=none;align=center;verticalAlign=middle;whiteSpace=wrap;rounded=0;" parent="1" vertex="1">
          <mxGeometry x="467" y="800" width="120" height="20" as="geometry" />
        </mxCell>
        <mxCell id="741fsMRxl2IYC-XLmPN2-16" value="" style="shape=cross;whiteSpace=wrap;html=1;" parent="1" vertex="1">
          <mxGeometry x="520" y="750" width="20" height="20" as="geometry" />
        </mxCell>
        <mxCell id="ONTo7doJvm3bp4kzr-S2-7" value="" style="group" vertex="1" connectable="0" parent="1">
          <mxGeometry x="310" y="927" width="200" height="413" as="geometry" />
        </mxCell>
        <mxCell id="741fsMRxl2IYC-XLmPN2-17" value="" style="verticalLabelPosition=bottom;verticalAlign=top;html=1;shadow=0;dashed=0;strokeWidth=1;shape=mxgraph.android.phone2;strokeColor=#c0c0c0;" parent="ONTo7doJvm3bp4kzr-S2-7" vertex="1">
          <mxGeometry y="23" width="200" height="390" as="geometry" />
        </mxCell>
        <mxCell id="741fsMRxl2IYC-XLmPN2-18" value="" style="strokeWidth=1;html=1;shadow=0;dashed=0;shape=mxgraph.android.statusBar;align=center;fillColor=#000000;strokeColor=#ffffff;fontColor=#ffffff;fontSize=10;" parent="ONTo7doJvm3bp4kzr-S2-7" vertex="1">
          <mxGeometry x="9" y="58" width="183" height="15.83" as="geometry" />
        </mxCell>
        <mxCell id="741fsMRxl2IYC-XLmPN2-20" value="动一动" style="rounded=0;whiteSpace=wrap;html=1;" parent="ONTo7doJvm3bp4kzr-S2-7" vertex="1">
          <mxGeometry x="10" y="83" width="181" height="19.17" as="geometry" />
        </mxCell>
        <mxCell id="741fsMRxl2IYC-XLmPN2-21" value="通知效果" style="text;html=1;strokeColor=none;fillColor=none;align=center;verticalAlign=middle;whiteSpace=wrap;rounded=0;" parent="ONTo7doJvm3bp4kzr-S2-7" vertex="1">
          <mxGeometry x="50.5" width="100" height="20" as="geometry" />
        </mxCell>
        <mxCell id="741fsMRxl2IYC-XLmPN2-22" value="为了明天" style="rounded=0;whiteSpace=wrap;html=1;" parent="ONTo7doJvm3bp4kzr-S2-7" vertex="1">
          <mxGeometry x="10" y="113" width="180" height="20" as="geometry" />
        </mxCell>
        <mxCell id="ONTo7doJvm3bp4kzr-S2-8" value="" style="group" vertex="1" connectable="0" parent="1">
          <mxGeometry x="57" y="1410" width="200" height="413" as="geometry" />
        </mxCell>
        <mxCell id="ONTo7doJvm3bp4kzr-S2-9" value="" style="verticalLabelPosition=bottom;verticalAlign=top;html=1;shadow=0;dashed=0;strokeWidth=1;shape=mxgraph.android.phone2;strokeColor=#c0c0c0;" vertex="1" parent="ONTo7doJvm3bp4kzr-S2-8">
          <mxGeometry y="23" width="200" height="390" as="geometry" />
        </mxCell>
        <mxCell id="ONTo7doJvm3bp4kzr-S2-10" value="" style="strokeWidth=1;html=1;shadow=0;dashed=0;shape=mxgraph.android.statusBar;align=center;fillColor=#000000;strokeColor=#ffffff;fontColor=#ffffff;fontSize=10;" vertex="1" parent="ONTo7doJvm3bp4kzr-S2-8">
          <mxGeometry x="9" y="58" width="183" height="15.83" as="geometry" />
        </mxCell>
        <mxCell id="ONTo7doJvm3bp4kzr-S2-12" value="第一期" style="text;html=1;strokeColor=none;fillColor=none;align=center;verticalAlign=middle;whiteSpace=wrap;rounded=0;" vertex="1" parent="ONTo7doJvm3bp4kzr-S2-8">
          <mxGeometry x="50.5" width="100" height="20" as="geometry" />
        </mxCell>
        <mxCell id="ONTo7doJvm3bp4kzr-S2-14" value="今天" style="text;html=1;strokeColor=none;fillColor=none;align=center;verticalAlign=middle;whiteSpace=wrap;rounded=0;" vertex="1" parent="ONTo7doJvm3bp4kzr-S2-8">
          <mxGeometry x="35" y="110" width="40" height="20" as="geometry" />
        </mxCell>
        <mxCell id="ONTo7doJvm3bp4kzr-S2-15" value="3,567" style="text;html=1;strokeColor=none;fillColor=none;align=center;verticalAlign=middle;whiteSpace=wrap;rounded=0;" vertex="1" parent="ONTo7doJvm3bp4kzr-S2-8">
          <mxGeometry x="75" y="170" width="40" height="20" as="geometry" />
        </mxCell>
        <mxCell id="ONTo7doJvm3bp4kzr-S2-18" value="步" style="text;html=1;strokeColor=none;fillColor=none;align=center;verticalAlign=middle;whiteSpace=wrap;rounded=0;" vertex="1" parent="ONTo7doJvm3bp4kzr-S2-8">
          <mxGeometry x="114" y="178" width="23" height="10" as="geometry" />
        </mxCell>
        <mxCell id="ONTo7doJvm3bp4kzr-S2-33" value="拍自己" style="ellipse;whiteSpace=wrap;html=1;aspect=fixed;" vertex="1" parent="ONTo7doJvm3bp4kzr-S2-8">
          <mxGeometry x="75.5" y="300" width="50" height="50" as="geometry" />
        </mxCell>
        <mxCell id="ONTo7doJvm3bp4kzr-S2-34" value="步数" style="text;html=1;strokeColor=none;fillColor=none;align=center;verticalAlign=middle;whiteSpace=wrap;rounded=0;" vertex="1" parent="ONTo7doJvm3bp4kzr-S2-8">
          <mxGeometry x="51" y="140" width="40" height="20" as="geometry" />
        </mxCell>
        <mxCell id="ONTo7doJvm3bp4kzr-S2-35" value="距离" style="text;html=1;strokeColor=none;fillColor=none;align=center;verticalAlign=middle;whiteSpace=wrap;rounded=0;" vertex="1" parent="ONTo7doJvm3bp4kzr-S2-8">
          <mxGeometry x="51" y="208" width="40" height="20" as="geometry" />
        </mxCell>
        <mxCell id="ONTo7doJvm3bp4kzr-S2-36" value="3.0&amp;nbsp;" style="text;html=1;strokeColor=none;fillColor=none;align=center;verticalAlign=middle;whiteSpace=wrap;rounded=0;" vertex="1" parent="ONTo7doJvm3bp4kzr-S2-8">
          <mxGeometry x="74" y="228" width="40" height="20" as="geometry" />
        </mxCell>
        <mxCell id="ONTo7doJvm3bp4kzr-S2-37" value="&lt;font style=&quot;font-size: 9px&quot;&gt;公里&lt;/font&gt;" style="text;html=1;strokeColor=none;fillColor=none;align=center;verticalAlign=middle;whiteSpace=wrap;rounded=0;" vertex="1" parent="ONTo7doJvm3bp4kzr-S2-8">
          <mxGeometry x="105.5" y="228" width="40" height="20" as="geometry" />
        </mxCell>
        <mxCell id="ONTo7doJvm3bp4kzr-S2-39" value="20:12" style="text;html=1;strokeColor=none;fillColor=none;align=center;verticalAlign=middle;whiteSpace=wrap;rounded=0;" vertex="1" parent="ONTo7doJvm3bp4kzr-S2-8">
          <mxGeometry x="125" y="140" width="40" height="20" as="geometry" />
        </mxCell>
        <mxCell id="ONTo7doJvm3bp4kzr-S2-43" value="" style="rounded=0;whiteSpace=wrap;html=1;" vertex="1" parent="ONTo7doJvm3bp4kzr-S2-8">
          <mxGeometry x="8" y="73.83" width="185" height="26.17" as="geometry" />
        </mxCell>
        <mxCell id="ONTo7doJvm3bp4kzr-S2-44" value="行走数据" style="text;html=1;strokeColor=none;fillColor=none;align=center;verticalAlign=middle;whiteSpace=wrap;rounded=0;" vertex="1" parent="ONTo7doJvm3bp4kzr-S2-8">
          <mxGeometry x="9" y="76.91" width="74" height="20" as="geometry" />
        </mxCell>
        <mxCell id="ONTo7doJvm3bp4kzr-S2-45" value="" style="group" vertex="1" connectable="0" parent="1">
          <mxGeometry x="290" y="1410" width="200" height="413" as="geometry" />
        </mxCell>
        <mxCell id="ONTo7doJvm3bp4kzr-S2-46" value="" style="verticalLabelPosition=bottom;verticalAlign=top;html=1;shadow=0;dashed=0;strokeWidth=1;shape=mxgraph.android.phone2;strokeColor=#c0c0c0;" vertex="1" parent="ONTo7doJvm3bp4kzr-S2-45">
          <mxGeometry y="23" width="200" height="390" as="geometry" />
        </mxCell>
        <mxCell id="ONTo7doJvm3bp4kzr-S2-47" value="" style="strokeWidth=1;html=1;shadow=0;dashed=0;shape=mxgraph.android.statusBar;align=center;fillColor=#000000;strokeColor=#ffffff;fontColor=#ffffff;fontSize=10;" vertex="1" parent="ONTo7doJvm3bp4kzr-S2-45">
          <mxGeometry x="9" y="58" width="183" height="15.83" as="geometry" />
        </mxCell>
        <mxCell id="ONTo7doJvm3bp4kzr-S2-48" value="第一期" style="text;html=1;strokeColor=none;fillColor=none;align=center;verticalAlign=middle;whiteSpace=wrap;rounded=0;" vertex="1" parent="ONTo7doJvm3bp4kzr-S2-45">
          <mxGeometry x="50.5" width="100" height="20" as="geometry" />
        </mxCell>
        <mxCell id="ONTo7doJvm3bp4kzr-S2-60" value="" style="shape=flexArrow;endArrow=classic;html=1;" edge="1" parent="ONTo7doJvm3bp4kzr-S2-45">
          <mxGeometry width="50" height="50" relative="1" as="geometry">
            <mxPoint x="60" y="100" as="sourcePoint" />
            <mxPoint x="20" y="100" as="targetPoint" />
          </mxGeometry>
        </mxCell>
        <mxCell id="ONTo7doJvm3bp4kzr-S2-61" value="自己" style="shape=umlActor;verticalLabelPosition=bottom;verticalAlign=top;html=1;outlineConnect=0;rotation=0;" vertex="1" parent="ONTo7doJvm3bp4kzr-S2-45">
          <mxGeometry x="41.02" y="140" width="118.97" height="180" as="geometry" />
        </mxCell>
      </root>
    </mxGraphModel>
  </diagram>
</mxfile>
